HIERARCHY
ROOT ROOT
{
	OFFSET 0.000000 56.020000 -5.659234
	CHANNELS 6 Xposition Yposition Zposition Xrotation Yrotation Zrotation 
	JOINT C_spine0001_bind_JNT
	{
		OFFSET 0.000000 1.618999 0.000000
		CHANNELS 3 Xrotation Yrotation Zrotation
		JOINT C_spine0002_bind_JNT
		{
			OFFSET 0.000000 4.942001 0.000001
			CHANNELS 3 Xrotation Yrotation Zrotation
			JOINT C_spine0003_bind_JNT
			{
				OFFSET 0.000000 4.942001 -0.000000
				CHANNELS 3 Xrotation Yrotation Zrotation
				JOINT C_neck0001_bind_JNT
				{
					OFFSET 0.000000 17.026009 -0.000000
					CHANNELS 3 Xrotation Yrotation Zrotation
					JOINT C_neck0002_bind_JNT
					{
						OFFSET 0.000000 3.249985 0.000000
						CHANNELS 3 Xrotation Yrotation Zrotation
						JOINT C_head_bind_JNT
						{
							OFFSET 0.000000 5.278008 0.000000
							CHANNELS 3 Xrotation Yrotation Zrotation
							End Site
							{
								OFFSET 0.000000 0.000000 0.000000
							}
						}
					}
				}
				JOINT L_clavicle_bind_JNT
				{
					OFFSET 4.590000 12.067001 0.834000
					CHANNELS 3 Xrotation Yrotation Zrotation
					JOINT L_armUpper0001_bind_JNT
					{
						OFFSET 7.812635 0.512001 -3.452945
						CHANNELS 3 Xrotation Yrotation Zrotation
						JOINT L_armLower0001_bind_JNT
						{
							OFFSET 15.265892 -6.552116 -0.058157
							CHANNELS 3 Xrotation Yrotation Zrotation
							JOINT L_hand0001_bind_JNT
							{
								OFFSET 14.747667 -6.369995 5.049225
								CHANNELS 3 Xrotation Yrotation Zrotation
								End Site
								{
									OFFSET 0.000000 0.000000 0.000000
								}
							}
						}
					}
				}
				JOINT R_clavicle_bind_JNT
				{
					OFFSET -4.590000 12.067001 0.834000
					CHANNELS 3 Xrotation Yrotation Zrotation
					JOINT R_armUpper0001_bind_JNT
					{
						OFFSET -7.812635 0.512001 -3.452945
						CHANNELS 3 Xrotation Yrotation Zrotation
						JOINT R_armLower0001_bind_JNT
						{
							OFFSET -15.265890 -6.552124 -0.058160
							CHANNELS 3 Xrotation Yrotation Zrotation
							JOINT R_hand0001_bind_JNT
							{
								OFFSET -14.746784 -6.369629 5.048937
								CHANNELS 3 Xrotation Yrotation Zrotation
								End Site
								{
									OFFSET 0.000000 0.000000 0.000000
								}
							}
						}
					}
				}
			}
		}
	}
	JOINT C_pelvis0001_bind_JNT
	{
		OFFSET -0.000000 0.000000 0.000000
		CHANNELS 3 Xrotation Yrotation Zrotation
		JOINT L_legUpper0001_bind_JNT
		{
			OFFSET 6.599999 -6.027000 0.539000
			CHANNELS 3 Xrotation Yrotation Zrotation
			JOINT L_legLower0001_bind_JNT
			{
				OFFSET -0.140713 -19.187443 0.040261
				CHANNELS 3 Xrotation Yrotation Zrotation
				JOINT L_foot0001_bind_JNT
				{
					OFFSET -0.132215 -18.028637 -1.138370
					CHANNELS 3 Xrotation Yrotation Zrotation
					JOINT L_foot0002_bind_JNT
					{
						OFFSET 0.007014 -4.693133 9.886524
						CHANNELS 3 Xrotation Yrotation Zrotation
						End Site
						{
							OFFSET 0.000000 0.000000 0.000000
						}
					}
				}
			}
		}
		JOINT R_legUpper0001_bind_JNT
		{
			OFFSET -6.599999 -6.027000 0.539000
			CHANNELS 3 Xrotation Yrotation Zrotation
			JOINT R_legLower0001_bind_JNT
			{
				OFFSET 0.140710 -19.187164 0.040550
				CHANNELS 3 Xrotation Yrotation Zrotation
				JOINT R_foot0001_bind_JNT
				{
					OFFSET 0.132215 -18.028633 -1.138362
					CHANNELS 3 Xrotation Yrotation Zrotation
					JOINT R_foot0002_bind_JNT
					{
						OFFSET -0.007014 -4.693128 9.886505
						CHANNELS 3 Xrotation Yrotation Zrotation
						End Site
						{
							OFFSET 0.000000 0.000000 0.000000
						}
					}
				}
			}
		}
	}
}
MOTION
Frames: 8
Frame Time: 0.033333
-2.926035 48.110737 50.135998 0.021278 -19.476023 -0.015369 0.851374 2.957338 -1.297463 -3.846076 -1.236180 -0.374451 3.948913 -0.767044 -2.040016 18.675566 1.432414 -0.901549 -0.051623 -0.020410 -0.137694 -2.194840 2.980411 -0.917837 13.560270 5.702857 23.547968 -26.751368 -10.282229 -78.792603 -2.274797 16.126709 -12.043654 -3.159539 -13.925666 -27.478685 16.321949 -1.466069 -18.686663 -21.921543 0.179148 82.326828 13.125308 -21.960823 6.007589 -10.201502 17.538105 28.764248 1.101972 5.078447 -0.593965 2.820217 0.528191 -3.819711 14.211652 2.026791 0.002487 -14.624372 -8.491587 0.504944 -3.405353 -1.917486 3.228900 -18.015320 -4.401034 -4.056453 17.043089 1.384439 0.081540 -2.649252 12.364057 3.524384 -0.803154 1.622134 0.515626 
-3.173105 48.041958 50.549187 0.021602 -19.238848 -0.016908 0.878639 3.000694 -1.219290 -3.939521 -1.262307 -0.315843 3.912120 -0.812655 -1.941491 18.801456 1.450170 -0.974721 -0.037601 -0.058688 -0.101831 -2.074608 2.940227 -0.915332 13.635380 5.658540 23.488569 -26.869219 -10.218435 -78.966431 -2.327717 16.114147 -12.009456 -3.214743 -13.907001 -27.422983 16.320530 -1.549270 -18.705091 -21.931860 0.233069 82.200256 13.072931 -21.971895 5.993652 -10.219492 17.474195 28.920523 1.175111 5.206409 -0.535430 2.903150 0.725603 -3.621714 15.079498 2.017711 -0.104458 -15.102200 -8.610556 0.185927 -3.819457 -2.033129 3.625963 -17.987534 -4.488040 -3.838476 18.107807 1.294622 -0.004572 -2.875333 11.965150 3.148393 -0.791139 1.593939 0.415008 
-3.431467 47.992664 50.934540 0.021457 -19.171532 -0.019215 0.822382 3.089509 -1.177866 -3.897172 -1.267057 -0.332376 3.885243 -0.828907 -1.881854 18.791994 1.474335 -0.962132 -0.085817 -0.036602 -0.085639 -1.939178 2.968172 -0.951409 13.637817 5.651749 23.546473 -26.731871 -10.140083 -79.054192 -2.398188 16.147003 -12.048495 -3.172211 -13.844414 -27.273237 16.356691 -1.552706 -18.678125 -21.969669 0.234889 82.065269 12.951664 -22.074427 5.967197 -10.096590 17.613440 28.956793 1.257171 5.325727 -0.540667 2.961170 0.928745 -3.444626 15.615177 2.068515 -0.111511 -15.420627 -8.598360 -0.165410 -4.144745 -2.303319 3.881818 -17.877193 -4.530759 -3.587820 18.870756 1.231240 0.029009 -3.113741 11.523371 2.727664 -0.871879 1.515244 0.328384 
-3.705806 47.948826 51.298229 0.019031 -19.028790 -0.018262 0.851331 3.050614 -1.108078 -3.938592 -1.290432 -0.291796 3.839039 -0.812779 -1.846635 18.797861 1.472577 -0.955263 -0.131242 -0.041234 -0.078718 -2.028786 3.061979 -0.941768 13.615466 5.598524 23.607040 -26.731306 -10.047090 -79.222298 -2.400847 16.286482 -11.979506 -3.167791 -13.803011 -27.289867 16.295292 -1.641013 -18.697702 -21.845270 0.289037 81.975357 12.792618 -21.998489 5.842986 -10.053471 17.532660 29.097795 1.353909 5.288409 -0.515435 3.123502 1.106545 -3.163681 16.136272 2.085537 -0.201995 -15.523805 -8.651196 -0.475589 -4.741962 -2.307769 4.108531 -17.828274 -4.403407 -3.321640 19.791512 1.204044 -0.007759 -3.778003 11.035750 2.481449 -1.022587 1.474501 0.274252 
-3.971988 47.926468 51.645390 0.021595 -19.009407 -0.019874 0.857593 3.170504 -1.070456 -3.925952 -1.299259 -0.288415 3.787724 -0.807611 -1.791273 18.722168 1.499157 -0.929972 -0.073030 -0.038270 -0.064826 -1.988304 3.044286 -0.963499 13.594458 5.467051 23.723038 -26.611546 -9.964656 -79.411232 -2.457196 16.413807 -11.931237 -3.143440 -13.781712 -27.351967 16.326979 -1.574223 -18.691805 -21.892281 0.159826 81.857674 12.910805 -22.132036 5.942679 -10.045630 17.596107 29.189663 1.437465 5.453475 -0.555423 3.179379 1.157306 -2.874910 16.554258 2.077284 -0.212766 -15.581244 -8.718028 -0.801591 -5.222241 -2.533756 4.285025 -17.731098 -4.283184 -3.069788 20.414894 1.103431 0.045215 -4.443399 10.673178 2.265659 -1.025989 1.430216 0.247770 
-4.236298 47.914391 52.026123 0.023395 -19.010517 -0.020733 0.953045 3.296211 -0.991592 -3.937022 -1.307087 -0.236237 3.770449 -0.822202 -1.726395 18.806820 1.462258 -0.984277 -0.086695 -0.039389 -0.042201 -1.933571 3.082989 -0.941004 13.557028 5.359825 23.640354 -26.676765 -10.017461 -79.563225 -2.435823 16.485039 -11.972821 -3.136029 -13.701571 -27.284458 16.246912 -1.604785 -18.677755 -21.928888 0.158526 81.794861 12.992323 -22.147827 5.869873 -10.081947 17.493090 29.278177 1.567640 5.585313 -0.579953 3.459095 1.198209 -2.606835 16.934278 2.110672 -0.258936 -15.432557 -8.916226 -0.988847 -6.145952 -2.461395 4.456548 -17.792698 -4.090831 -2.754713 21.202042 1.095720 0.042414 -5.204792 10.243123 2.024558 -1.038812 1.369902 0.220114 
-4.523560 47.913219 52.391998 0.017947 -19.037998 -0.018388 1.030586 3.432624 -0.929390 -3.963714 -1.341386 -0.234851 3.773524 -0.858130 -1.693348 18.832012 1.556363 -0.959582 -0.041464 -0.057572 -0.056160 -1.874721 3.091371 -1.000290 13.457977 5.320340 23.736509 -26.452772 -9.972216 -79.731186 -2.442610 16.438534 -12.018760 -3.113906 -13.668829 -27.225906 16.294313 -1.490390 -18.683056 -21.944599 0.096321 81.681389 12.973954 -22.237520 5.812549 -9.966294 17.558647 29.396408 1.693702 5.766010 -0.663252 3.641057 1.286606 -2.250171 17.169909 2.151358 -0.333443 -15.239863 -9.004145 -1.273457 -6.826948 -2.723804 4.628832 -17.787592 -3.994932 -2.416670 21.765326 0.979000 0.092335 -5.767433 10.026359 1.755414 -1.098296 1.281546 0.208089 
-4.856544 47.897346 52.753086 0.019621 -19.124592 -0.018382 1.167315 3.561261 -0.840339 -3.967967 -1.367568 -0.196246 3.750623 -0.875922 -1.620418 18.956705 1.508303 -1.006535 -0.037755 -0.011700 -0.064608 -1.680351 3.074825 -1.001321 13.465141 5.344927 23.691013 -26.495262 -10.023654 -79.833542 -2.529003 16.444687 -11.977748 -3.210302 -13.724428 -27.280285 16.187691 -1.486312 -18.713749 -21.866167 0.127714 81.612808 12.961854 -22.211567 5.786279 -10.012411 17.502930 29.467173 1.825358 5.898211 -0.654027 3.867131 1.401662 -1.846579 17.405878 2.143666 -0.394332 -14.780916 -9.145662 -1.549873 -7.846474 -2.709338 4.663851 -17.712229 -3.856783 -1.996143 22.485027 1.025477 -0.001203 -6.609605 9.651668 1.492826 -1.078309 1.240587 0.135616 
